<svg width="654" height="654" viewBox="0 0 654 654" fill="none" xmlns="http://www.w3.org/2000/svg">
<mask id="mask0_35_81" style="mask-type:luminance" maskUnits="userSpaceOnUse" x="0" y="0" width="654" height="654">
<path d="M653.56 0.34668H0.146622V653.76H653.56V0.34668Z" fill="white"/>
</mask>
<g mask="url(#mask0_35_81)">
<mask id="mask1_35_81" style="mask-type:luminance" maskUnits="userSpaceOnUse" x="1" y="0" width="653" height="651">
<path d="M1.97458 0.45816H653.215V650.907H1.97458V0.45816Z" fill="white"/>
</mask>
<g mask="url(#mask1_35_81)">
<path d="M68.3034 50.3469C28.3122 80.7304 17.7459 131.165 10.4454 163.288C-18.244 289.726 27.6434 461.294 151.596 561.506C180.609 584.957 330.565 698.789 482.94 625.416C617.648 560.547 666.545 391.599 649.592 263.868C635.537 158.049 570.601 31.1538 473.767 4.91649C412.877 -11.5793 402.868 29.415 274.59 35.5675C163.567 40.8952 117.211 13.1644 68.3034 50.3469Z" fill="#E5F1EA"/>
</g>
<mask id="mask2_35_81" style="mask-type:luminance" maskUnits="userSpaceOnUse" x="54" y="3" width="600" height="514">
<path d="M54.36 3.20004H653.214V516.8H54.36V3.20004Z" fill="white"/>
</mask>
<g mask="url(#mask2_35_81)">
<path d="M645.156 507.326L639.873 511.818C636.897 514.348 631.168 516.755 627.334 515.942L54.7167 27.1302C54.6609 18.86 58.9855 11.1693 66.0854 6.92277C71.1233 3.90225 77.1198 2.88798 82.871 4.09173L642.425 120.733C648.065 121.914 652.1 126.874 652.1 132.625V492.279C652.1 498.075 649.559 503.57 645.156 507.326Z" fill="#048B3E"/>
</g>
<path d="M628.058 514.861L69.9084 398.509C61.2481 396.693 55.0399 389.069 55.0399 380.219V25.8038C55.0399 21.1337 59.331 17.645 63.912 18.6036L623.544 135.267C629.184 136.437 633.208 141.397 633.208 147.16V510.681C633.208 513.389 630.722 515.418 628.058 514.861Z" fill="white"/>
<path d="M628.939 516.131C628.571 516.131 628.192 516.098 627.813 516.02L494.253 488.166C493.617 488.044 493.205 487.409 493.339 486.773C493.472 486.138 494.097 485.737 494.732 485.87L628.303 513.713C629.217 513.902 630.165 513.679 630.889 513.077C631.614 512.498 632.037 511.617 632.037 510.681V147.16C632.037 141.988 628.359 137.474 623.299 136.426L615.051 134.699C614.416 134.565 614.015 133.941 614.137 133.305C614.282 132.67 614.895 132.258 615.53 132.403L623.778 134.119C629.931 135.401 634.389 140.885 634.389 147.16V510.681C634.389 512.331 633.665 513.869 632.383 514.905C631.391 515.708 630.187 516.131 628.939 516.131Z" fill="#2B2A2A"/>
<path d="M525.662 115.918C525.584 115.918 525.505 115.907 525.427 115.896L435.28 97.0925C434.645 96.9588 434.232 96.3346 434.366 95.6993C434.5 95.064 435.113 94.6516 435.759 94.7854L525.907 113.588C526.542 113.722 526.954 114.346 526.821 114.982C526.698 115.539 526.208 115.918 525.662 115.918Z" fill="#2B2A2A"/>
<path d="M55.0399 184.298C54.3823 184.298 53.8584 183.774 53.8584 183.116V25.8038C53.8584 23.2291 55.0064 20.8105 57.0127 19.1832C59.0189 17.5559 61.6159 16.9206 64.146 17.4444L331.111 73.1402C331.746 73.2739 332.148 73.8869 332.025 74.5334C331.88 75.1687 331.256 75.5699 330.632 75.4473L63.6668 19.7516C61.8388 19.3727 59.9552 19.8296 58.4951 21.0111C57.0461 22.1926 56.2102 23.9424 56.2102 25.8038V183.116C56.2102 183.774 55.6863 184.298 55.0399 184.298Z" fill="#2B2A2A"/>
<path d="M55.0399 336.929C54.3823 336.929 53.8584 336.405 53.8584 335.758V239.882C53.8584 239.224 54.3823 238.7 55.0399 238.7C55.6863 238.7 56.2102 239.224 56.2102 239.882V335.758C56.2102 336.405 55.6863 336.929 55.0399 336.929Z" fill="#2B2A2A"/>
<path d="M549.781 127.944L601.877 139.157L635.247 96.3346L549.781 127.944Z" fill="white"/>
<path d="M553.983 127.643L601.398 137.853L631.77 98.8759L553.983 127.643ZM601.877 140.338C601.799 140.338 601.71 140.327 601.62 140.316L549.536 129.092C549.023 128.981 548.644 128.546 548.6 128.022C548.566 127.498 548.878 127.019 549.369 126.83L634.835 95.2312C635.325 95.0528 635.883 95.22 636.195 95.6436C636.507 96.0671 636.496 96.6467 636.184 97.0591L602.802 139.881C602.579 140.171 602.233 140.338 601.877 140.338Z" fill="#2B2A2A"/>
<path d="M576.91 150.08L568.462 131.968L614.55 109.242L577.612 133.941L588.513 136.281L576.91 150.08Z" fill="#008037"/>
<path d="M570.022 132.514L577.2 147.906L586.351 137.028L577.367 135.089C576.91 134.988 576.553 134.621 576.464 134.152C576.375 133.695 576.576 133.227 576.966 132.96L599.012 118.214L570.022 132.514ZM576.91 151.25C576.866 151.25 576.81 151.25 576.754 151.239C576.353 151.194 576.007 150.938 575.84 150.57L567.403 132.469C567.135 131.879 567.369 131.199 567.949 130.909L614.026 108.183C614.583 107.904 615.263 108.116 615.564 108.651C615.876 109.186 615.72 109.877 615.207 110.222L580.588 133.372L588.758 135.133C589.171 135.222 589.494 135.512 589.628 135.902C589.761 136.292 589.683 136.727 589.416 137.039L577.813 150.838C577.59 151.094 577.256 151.25 576.91 151.25Z" fill="#2B2A2A"/>
<path d="M577.456 140.795C577.445 140.795 577.445 140.795 577.445 140.795C576.832 140.784 576.353 140.294 576.353 139.681L576.453 133.974C576.453 133.372 576.977 132.893 577.557 132.893C578.158 132.904 578.649 133.406 578.638 134.008L578.549 139.714C578.537 140.316 578.047 140.795 577.456 140.795Z" fill="#2B2A2A"/>
<path d="M566.957 359.321C570.468 350.025 580.845 345.333 590.14 348.844C599.447 352.343 604.139 362.72 600.628 372.005C597.118 381.3 586.741 385.993 577.445 382.493C568.138 378.982 563.446 368.616 566.957 359.321Z" fill="#008037"/>
<path d="M616.823 381.857C614.873 381.857 611.919 381.467 607.405 380.409C600.238 378.737 590.976 375.816 581.335 372.172C571.694 368.549 562.799 364.626 556.313 361.149C546.694 355.999 545.969 353.837 546.515 352.388C546.917 351.329 547.853 348.855 565.363 353.748C565.998 353.915 566.355 354.572 566.188 355.197C566.009 355.821 565.363 356.189 564.728 356.01C554.485 353.146 550.071 352.945 548.856 353.28C550.238 355.564 562.264 362.464 582.171 369.976C602.066 377.477 615.653 380.219 618.205 379.417C617.548 378.413 614.315 375.794 605.421 371.447C604.842 371.169 604.596 370.455 604.875 369.876C605.165 369.285 605.878 369.051 606.458 369.33C621.861 376.864 620.947 379.272 620.568 380.297C620.256 381.133 619.454 381.857 616.823 381.857Z" fill="#048B3E"/>
<path d="M423.41 54.248C432.583 68.4478 432.516 85.8687 424.714 99.6338C424.703 99.6449 424.703 99.7118 424.703 99.723C421.314 105.675 416.466 110.969 410.313 114.937C406.067 117.668 401.508 119.585 396.86 120.711L396.782 120.699C379.116 124.991 359.99 117.969 349.58 101.852C349.212 101.272 348.9 100.726 348.565 100.135C348.565 100.135 348.521 100.102 348.51 100.091C336.784 79.9503 342.87 53.9359 362.676 41.1628C378.247 31.1204 397.785 32.1792 411.996 42.2996C412.019 42.3108 411.996 42.3888 412.019 42.3999C416.399 45.5208 420.311 49.4441 423.41 54.248Z" fill="#008037"/>
<path d="M423.41 54.248C420.311 49.433 416.41 45.4427 412.008 42.2996C409.444 44.0718 406.423 46.9363 407.505 50.1686C409.299 55.5409 415.184 57.5917 416.967 61.6711C418.762 65.7727 406.479 64.2346 402.389 70.1085C398.298 75.9935 406.992 76.2498 409.043 78.3007C411.082 80.3404 404.696 84.6872 407.248 90.5722C409.422 95.5656 421.559 96.3123 424.703 99.723C432.505 85.969 432.594 68.4589 423.41 54.248Z" fill="white"/>
<path d="M353.514 74.2101C353.681 70.5543 356.836 65.0037 361.963 65.26C367.079 65.5164 367.335 76.5062 371.938 79.0697C376.541 81.6221 378.849 85.4563 375.516 88.7889C372.195 92.1103 367.079 90.0595 362.475 85.7126C357.861 81.3658 353.258 79.8388 353.514 74.2101Z" fill="white"/>
<path d="M385.759 108.718C378.759 109.743 372.964 114.168 367.001 111.616C361.026 109.063 362.565 99.8567 357.783 97.3043C354.45 95.521 351.218 98.118 348.51 100.091C348.855 100.682 349.212 101.272 349.591 101.841C359.99 117.969 379.194 124.991 396.86 120.711C392.892 117.478 391.834 107.837 385.759 108.718Z" fill="#048B3E"/>
<path d="M362.687 41.1627C360.046 42.8569 357.66 44.7963 355.52 46.914C359.109 48.0955 363.724 48.6639 366.655 48.0397C372.284 46.8471 374.323 40.2042 380.81 38.8333C386.929 37.5515 397.317 40.2153 401.04 36.6375C388.679 32.313 374.535 33.5167 362.687 41.1627Z" fill="#048B3E"/>
<path d="M90.1493 172.639C90.1493 131.221 123.754 97.6387 165.205 97.6387C206.657 97.6387 240.261 131.221 240.261 172.639C240.261 214.057 206.657 247.639 165.205 247.639C123.754 247.639 90.1493 214.057 90.1493 172.639Z" fill="#008037"/>
<path d="M90.3164 167.601C102.867 164.124 125.704 157.67 140.64 152.699C162.129 145.532 193.349 128.669 201.028 123.553C205.018 120.889 211.516 119.195 216.822 118.192C213.679 115.216 210.279 112.507 206.657 110.111C194.853 115.115 163.556 130.619 154.973 133.773C145.243 137.362 122.216 141.442 114.035 142.98C107.994 144.106 100.303 147.193 93.3927 150.771C91.7542 156.154 90.7065 161.783 90.3164 167.601Z" fill="#E5F1EA"/>
<path d="M147.294 193.604C130.386 202.053 110.691 198.988 95.399 200.258C96.6807 203.48 98.1743 206.578 99.8573 209.554C116.565 209.097 150.08 207.626 171.347 193.604C185.613 184.186 201.541 181.333 227.633 170.087C232.805 167.857 236.739 165.729 239.738 163.745C239.392 160.847 238.89 157.982 238.222 155.185C227.577 160.234 211.271 167.679 201.541 170.588C186.182 175.191 167.769 183.372 147.294 193.604Z" fill="#E5F1EA"/>
<path d="M126.05 236.638C137.452 243.616 150.861 247.639 165.205 247.639C197.562 247.639 225.148 227.176 235.68 198.486C222.183 205.876 200.526 222.639 182.604 228.881C163.366 235.591 144.507 237.608 126.05 236.638Z" fill="#E5F1EA"/>
<path d="M165.205 97.6387C134.22 97.6387 107.637 116.397 96.168 143.158C104.193 139.469 114.091 135.3 121.703 133.272C137.062 129.181 149.846 128.156 160.602 120.488C167.724 115.394 183.852 107.837 193.906 103.323C185.067 99.6672 175.37 97.6387 165.205 97.6387Z" fill="#E5F1EA"/>
<path d="M62.6748 232.481C46.8254 232.481 38.0425 229.215 36.0028 222.628C33.2163 213.689 44.1281 202.777 69.3288 189.28C71.4354 188.154 74.0547 188.934 75.1804 191.041C76.3061 193.136 75.5148 195.755 73.4194 196.881C47.9623 210.513 43.7269 218.382 44.2507 220.065C44.7857 221.781 52.911 225.905 82.3026 222.55C107.559 219.663 140.083 212.296 173.899 201.797C207.715 191.297 238.701 178.948 261.137 167.022C287.263 153.145 291.621 145.142 291.086 143.426C290.529 141.631 281.924 137.385 250.761 141.208C248.398 141.509 246.236 139.815 245.946 137.452C245.656 135.089 247.339 132.938 249.713 132.637C263.099 130.998 273.977 130.608 282.036 131.477C292.045 132.559 297.707 135.635 299.334 140.862C302.143 149.902 290.975 160.947 265.195 174.645C242.301 186.817 210.781 199.378 176.463 210.033C142.145 220.7 109.053 228.179 83.2834 231.132C75.4256 232.024 68.5598 232.481 62.6748 232.481Z" fill="#048B3E"/>
<path d="M318.717 288.177H294.319L280.888 264.938L294.319 241.687H321.18L334.622 264.949L326.385 278.77C326.051 279.327 325.326 279.505 324.769 279.171C324.212 278.848 324.022 278.123 324.357 277.566L331.891 264.926L319.82 244.039H295.678L283.607 264.938L295.678 285.825H318.717C319.374 285.825 319.898 286.36 319.898 287.006C319.898 287.653 319.374 288.177 318.717 288.177Z" fill="#2B2A2A"/>
<path d="M291.031 286.516C291.153 284.231 293.115 282.481 295.411 282.604C297.707 282.726 299.457 284.688 299.334 286.984C299.2 289.269 297.239 291.019 294.954 290.896C292.658 290.774 290.908 288.812 291.031 286.516Z" fill="#2B2A2A"/>
<path d="M278.414 264.536C278.536 262.24 280.498 260.49 282.783 260.613C285.079 260.747 286.84 262.708 286.706 264.993C286.583 267.278 284.622 269.039 282.326 268.906C280.041 268.783 278.28 266.821 278.414 264.536Z" fill="#2B2A2A"/>
<path d="M328.391 264.536C328.514 262.24 330.476 260.49 332.772 260.613C335.057 260.747 336.818 262.708 336.684 264.993C336.561 267.278 334.6 269.039 332.304 268.906C330.019 268.783 328.258 266.821 328.391 264.536Z" fill="#2B2A2A"/>
<path d="M316.276 286.516C316.41 284.231 318.36 282.481 320.656 282.604C322.952 282.726 324.702 284.688 324.579 286.984C324.446 289.269 322.484 291.019 320.199 290.896C317.903 290.774 316.153 288.812 316.276 286.516Z" fill="#2B2A2A"/>
<path d="M291.031 242.456C291.153 240.172 293.115 238.422 295.411 238.544C297.707 238.678 299.457 240.629 299.334 242.913C299.2 245.209 297.239 246.959 294.954 246.837C292.658 246.714 290.908 244.753 291.031 242.456Z" fill="#2B2A2A"/>
<path d="M316.276 242.456C316.41 240.172 318.36 238.422 320.656 238.544C322.952 238.678 324.702 240.629 324.579 242.913C324.446 245.209 322.484 246.959 320.199 246.837C317.903 246.714 316.153 244.753 316.276 242.456Z" fill="#2B2A2A"/>
<path d="M358.24 254.583C357.839 254.583 357.437 254.371 357.215 253.992L340.997 225.905L357.56 197.238H390.686L407.248 225.905L390.686 254.583H374.502C373.844 254.583 373.32 254.048 373.32 253.402C373.32 252.755 373.844 252.231 374.502 252.231H389.326L404.54 225.905L389.326 199.601H358.92L343.717 225.905L359.254 252.811C359.589 253.379 359.388 254.104 358.831 254.427C358.641 254.527 358.441 254.583 358.24 254.583Z" fill="#008037"/>
<path d="M353.291 252.8C353.459 249.947 355.899 247.762 358.753 247.918C361.606 248.085 363.791 250.515 363.635 253.368C363.467 256.222 361.027 258.406 358.184 258.25C355.32 258.094 353.135 255.653 353.291 252.8Z" fill="#008037"/>
<path d="M337.576 225.415C337.732 222.561 340.173 220.377 343.026 220.533C345.879 220.689 348.064 223.13 347.908 225.983C347.752 228.836 345.311 231.021 342.458 230.865C339.604 230.698 337.42 228.268 337.576 225.415Z" fill="#008037"/>
<path d="M399.825 225.415C399.981 222.561 402.422 220.377 405.275 220.533C408.129 220.689 410.324 223.13 410.157 225.983C410.001 228.836 407.56 231.021 404.707 230.865C401.854 230.698 399.669 228.268 399.825 225.415Z" fill="#008037"/>
<path d="M384.745 252.8C384.901 249.947 387.342 247.762 390.195 247.918C393.048 248.085 395.233 250.515 395.077 253.368C394.921 256.222 392.48 258.406 389.627 258.25C386.773 258.094 384.589 255.653 384.745 252.8Z" fill="#008037"/>
<path d="M353.291 197.918C353.459 195.064 355.899 192.88 358.753 193.047C361.606 193.192 363.791 195.644 363.635 198.486C363.467 201.34 361.027 203.524 358.184 203.368C355.32 203.212 353.135 200.771 353.291 197.918Z" fill="#008037"/>
<path d="M384.745 197.918C384.901 195.064 387.342 192.88 390.195 193.047C393.048 193.192 395.233 195.644 395.077 198.486C394.921 201.34 392.48 203.524 389.627 203.368C386.773 203.212 384.589 200.771 384.745 197.918Z" fill="#008037"/>
<path d="M592.994 178.446C592.815 178.446 592.637 178.435 592.447 178.39L450.461 150.024C448.978 149.723 448.009 148.274 448.309 146.792C448.599 145.298 450.048 144.329 451.542 144.63L593.529 173.007C595.022 173.308 595.981 174.757 595.691 176.239C595.423 177.543 594.275 178.446 592.994 178.446Z" fill="#008037"/>
<path d="M591.455 202.644C591.277 202.644 591.088 202.632 590.909 202.599L504.05 185.145C502.556 184.855 501.598 183.395 501.899 181.912C502.2 180.43 503.649 179.46 505.131 179.761L591.99 197.204C593.484 197.505 594.442 198.954 594.142 200.437C593.885 201.741 592.737 202.644 591.455 202.644Z" fill="#008037"/>
<path d="M484.667 181.21C484.478 181.21 484.299 181.199 484.121 181.154L450.461 174.433C448.978 174.133 448.009 172.695 448.309 171.201C448.599 169.719 450.048 168.749 451.542 169.05L485.202 175.771C486.685 176.072 487.654 177.521 487.353 179.003C487.086 180.307 485.949 181.21 484.667 181.21Z" fill="#008037"/>
<path d="M592.994 227.287C592.815 227.287 592.637 227.265 592.447 227.231L450.461 198.854C448.978 198.553 448.009 197.104 448.309 195.622C448.599 194.139 450.048 193.17 451.542 193.471L593.529 221.837C595.022 222.138 595.981 223.587 595.691 225.069C595.423 226.384 594.275 227.287 592.994 227.287Z" fill="#008037"/>
<path d="M592.994 283.529C592.815 283.529 592.637 283.507 592.447 283.473L559.255 276.841C557.762 276.54 556.792 275.092 557.093 273.609C557.394 272.127 558.854 271.157 560.325 271.458L593.529 278.09C595.022 278.391 595.981 279.829 595.691 281.322C595.423 282.626 594.275 283.529 592.994 283.529Z" fill="#008037"/>
<path d="M155.263 547.139L138.154 649.714H128.77L146.536 546.782L155.263 547.139Z" fill="#048B3E"/>
<path d="M130.163 648.533H137.162L153.881 548.254L147.528 547.997L130.163 648.533ZM138.154 650.884H128.77C128.424 650.884 128.09 650.728 127.867 650.461C127.644 650.205 127.544 649.848 127.61 649.502L145.377 546.582C145.477 545.991 146.012 545.579 146.592 545.601L155.308 545.958C155.642 545.969 155.954 546.136 156.177 546.392C156.389 546.649 156.478 546.994 156.422 547.328L139.314 649.904C139.224 650.472 138.734 650.884 138.154 650.884Z" fill="#2B2A2A"/>
<path d="M242.268 547.785H133.975C132.771 547.785 131.79 546.805 131.79 545.59V535.904C131.79 534.689 132.771 533.708 133.975 533.708H242.268C243.471 533.708 244.452 534.689 244.452 535.904V545.59C244.452 546.805 243.471 547.785 242.268 547.785Z" fill="#048B3E"/>
<path d="M138.823 534.89C135.591 534.89 132.96 537.52 132.96 540.741C132.96 543.974 135.591 546.604 138.823 546.604H237.419C240.651 546.604 243.282 543.974 243.282 540.741C243.282 537.52 240.651 534.89 237.419 534.89H138.823ZM237.419 548.956H138.823C134.298 548.956 130.609 545.278 130.609 540.741C130.609 536.216 134.298 532.538 138.823 532.538H237.419C241.944 532.538 245.634 536.216 245.634 540.741C245.634 545.278 241.944 548.956 237.419 548.956Z" fill="#2B2A2A"/>
<path d="M234.577 623.454C234.577 623.454 229.74 627.757 228.514 632.795C227.299 637.844 225.203 648.455 228.692 649.681C231.267 650.583 257.827 650.149 271.436 649.859C275.716 649.77 278.046 644.732 275.248 641.488C273.13 639.014 269.92 636.395 265.083 634.188C251.675 628.102 248.721 624.446 248.721 624.446L234.577 623.454Z" fill="#048B3E"/>
<mask id="mask3_35_81" style="mask-type:luminance" maskUnits="userSpaceOnUse" x="225" y="619" width="55" height="33">
<path d="M225.56 619.52H279.773V651.709H225.56V619.52Z" fill="white"/>
</mask>
<g mask="url(#mask3_35_81)">
<path d="M235.012 624.658C233.919 625.728 230.598 629.217 229.662 633.073C227.254 643.015 227.678 648.076 229.082 648.566C230.386 649.023 242.201 649.302 271.403 648.689C272.952 648.655 274.312 647.741 274.936 646.326C275.571 644.921 275.348 643.406 274.356 642.246C271.96 639.471 268.672 637.119 264.593 635.258C253.425 630.187 249.334 626.731 248.175 625.583L235.012 624.658ZM243.639 651.408C234.599 651.408 229.472 651.197 228.302 650.784C225.036 649.647 224.724 643.495 227.366 632.527C228.659 627.177 233.585 622.763 233.797 622.574C234.031 622.362 234.343 622.251 234.655 622.273L248.799 623.276C249.122 623.298 249.423 623.455 249.635 623.711C249.657 623.733 252.745 627.3 265.574 633.118C269.965 635.113 273.521 637.665 276.14 640.719C277.722 642.547 278.079 645.066 277.087 647.284C276.084 649.547 273.922 650.985 271.459 651.04C259.889 651.275 250.605 651.408 243.639 651.408Z" fill="#2B2A2A"/>
</g>
<path d="M193.137 623.454C193.137 623.454 188.288 627.757 187.073 632.795C185.858 637.844 183.763 648.455 187.252 649.681C189.826 650.583 216.387 650.149 229.985 649.859C234.276 649.77 236.605 644.732 233.808 641.488C231.69 639.014 228.48 636.395 223.643 634.188C210.234 628.102 207.27 624.446 207.27 624.446L193.137 623.454Z" fill="#048B3E"/>
<mask id="mask4_35_81" style="mask-type:luminance" maskUnits="userSpaceOnUse" x="182" y="619" width="55" height="33">
<path d="M182.76 619.52H236.973V651.709H182.76V619.52Z" fill="white"/>
</mask>
<g mask="url(#mask4_35_81)">
<path d="M193.571 624.658C192.479 625.728 189.147 629.217 188.221 633.073C185.814 643.015 186.238 648.076 187.631 648.566C188.946 649.023 200.749 649.302 229.963 648.689C231.512 648.655 232.861 647.741 233.496 646.326C234.12 644.921 233.908 643.406 232.916 642.246C230.52 639.471 227.232 637.119 223.153 635.258C211.984 630.187 207.894 626.731 206.735 625.583L193.571 624.658ZM202.187 651.408C193.159 651.408 188.021 651.197 186.862 650.784C183.585 649.647 183.273 643.495 185.925 632.527C187.218 627.177 192.145 622.763 192.357 622.574C192.591 622.362 192.903 622.251 193.215 622.273L207.359 623.276C207.682 623.298 207.983 623.455 208.184 623.711C208.206 623.733 211.304 627.3 224.133 633.118C228.525 635.113 232.08 637.665 234.7 640.719C236.282 642.547 236.639 645.066 235.647 647.284C234.644 649.547 232.482 650.985 230.018 651.04C218.449 651.275 209.153 651.408 202.187 651.408Z" fill="#2B2A2A"/>
</g>
<path d="M234.499 619.119L234.231 623.454C233.997 627.266 237.029 630.476 240.841 630.476H245.255C248.832 630.476 251.764 627.645 251.886 624.067L252.143 616.098L234.499 619.119Z" fill="white"/>
<path d="M235.614 620.111L235.402 623.521C235.313 625.037 235.836 626.486 236.873 627.59C237.91 628.693 239.325 629.306 240.841 629.306H245.255C248.219 629.306 250.605 626.988 250.705 624.034L250.917 617.503L235.614 620.111ZM245.255 631.658H240.841C238.667 631.658 236.65 630.788 235.157 629.206C233.663 627.623 232.916 625.55 233.05 623.376L233.317 619.041C233.351 618.495 233.752 618.049 234.298 617.948L251.942 614.939C252.288 614.872 252.644 614.973 252.912 615.207C253.179 615.441 253.324 615.775 253.313 616.132L253.057 624.112C252.923 628.336 249.49 631.658 245.255 631.658Z" fill="#2B2A2A"/>
<path d="M193.404 619.119L193.137 623.454C192.903 627.266 195.934 630.476 199.746 630.476H204.16C207.738 630.476 210.669 627.645 210.792 624.067L211.048 616.098L193.404 619.119Z" fill="white"/>
<path d="M194.519 620.111L194.307 623.521C194.218 625.037 194.742 626.486 195.778 627.59C196.815 628.693 198.23 629.306 199.746 629.306H204.16C207.125 629.306 209.51 626.988 209.61 624.034L209.822 617.503L194.519 620.111ZM204.16 631.658H199.746C197.573 631.658 195.555 630.788 194.062 629.206C192.568 627.612 191.822 625.55 191.955 623.376L192.223 619.041C192.256 618.495 192.657 618.049 193.204 617.948L210.847 614.939C211.193 614.872 211.55 614.973 211.817 615.207C212.085 615.441 212.23 615.775 212.218 616.132L211.962 624.112C211.828 628.336 208.395 631.658 204.16 631.658Z" fill="#2B2A2A"/>
<path d="M143.371 499.167C143.371 499.167 136.404 528.403 147.55 533.274C158.696 538.144 181.322 534.667 185.859 538.144C190.384 541.633 188.043 617.837 188.043 617.837C188.043 617.837 195.611 625.84 216.153 617.837C216.153 617.837 230.085 549.636 225.906 535.012C222.094 521.693 201.53 507.872 189.682 502.31C177.845 496.738 143.371 499.167 143.371 499.167Z" fill="#2B2A2A"/>
<path d="M224.512 496.035C224.512 496.035 264.559 510.659 270.132 531.535C275.705 552.411 254.807 620.969 254.807 620.969C254.807 620.969 235.301 624.101 230.431 617.135C230.431 617.135 231.478 553.459 223.465 543.372C215.451 533.274 172.617 499.869 172.617 499.869C172.617 499.869 219.285 500.917 224.512 496.035Z" fill="#2B2A2A"/>
<path d="M267.903 328.101C267.903 328.101 271.102 319.129 276.742 317.156C282.37 315.172 286.483 317.914 291.198 315.484C295.924 313.043 294.854 311.828 300.638 309.855C306.423 307.871 303.079 318.371 296.838 321.715C290.596 325.069 282.214 332.058 282.214 332.058L267.903 328.101Z" fill="white"/>
<path d="M269.497 327.321L281.947 330.765C283.83 329.216 290.785 323.632 296.28 320.678C300.583 318.371 303.057 312.62 302.344 311.003C302.199 310.647 301.541 310.792 301.017 310.97C297.885 312.04 296.96 312.82 295.79 313.801C294.887 314.57 293.851 315.439 291.744 316.532C289.002 317.947 286.439 317.791 283.964 317.646C281.824 317.524 279.606 317.401 277.132 318.27C273.242 319.63 270.545 324.936 269.497 327.321ZM282.214 333.239C282.114 333.239 282.014 333.228 281.902 333.195L267.591 329.238C267.279 329.16 267.011 328.937 266.866 328.647C266.71 328.357 266.688 328.023 266.8 327.711C266.933 327.321 270.255 318.181 276.352 316.041C279.272 315.016 281.835 315.172 284.098 315.295C286.45 315.439 288.489 315.551 290.663 314.436C292.535 313.467 293.416 312.72 294.274 312.007C295.522 310.948 296.704 309.956 300.259 308.741C303.213 307.727 304.261 309.488 304.506 310.056C305.821 313.065 302.477 320.032 297.395 322.762C291.332 326.006 283.061 332.894 282.972 332.961C282.76 333.139 282.493 333.239 282.214 333.239Z" fill="#2B2A2A"/>
<path d="M284.053 331.166L267.179 325.827C266.298 325.56 265.339 325.928 264.883 326.719L246.091 359.12C241.03 367.825 232.147 373.609 222.138 374.769C193.304 378.101 172.027 377.343 172.027 377.343C169.062 377.689 149.579 376.953 129.728 396.091C109.877 415.228 96.3575 436.182 99.835 442.457C103.313 448.721 114.291 447.674 114.291 447.674L135.613 447.317L135.702 504.049C135.702 504.049 195.957 513.088 224.512 496.035L222.06 445.879C222.06 445.879 221.068 422.417 224.824 415.44C227.288 410.837 236.26 405.152 245.21 400.816C254.049 396.525 261.037 389.18 264.972 380.186L285.268 333.841C285.736 332.76 285.168 331.523 284.053 331.166Z" fill="#048B3E"/>
<path d="M147.573 428.848C145.901 428.848 144.084 428.815 142.312 428.714C140.216 428.592 138.377 427.422 137.396 425.56C136.404 423.699 136.46 421.514 137.541 419.698C137.597 419.619 137.653 419.553 137.709 419.486L143.828 413.233C144.285 412.765 145.031 412.754 145.488 413.211C145.956 413.668 145.968 414.414 145.511 414.871L139.503 421.024C138.901 422.094 138.89 423.376 139.47 424.457C140.071 425.583 141.175 426.296 142.445 426.363C148.141 426.675 154.349 426.318 154.416 426.318C155.074 426.262 155.62 426.775 155.653 427.422C155.698 428.068 155.196 428.625 154.55 428.659C154.505 428.67 151.418 428.848 147.573 428.848Z" fill="#2B2A2A"/>
<path d="M157.871 429.428V444.029H180.854C183.184 444.029 184.588 441.421 183.262 439.515C180.096 434.967 172.974 428.715 157.871 429.428Z" fill="white"/>
<path d="M159.053 442.859H180.854C181.512 442.859 182.091 442.502 182.392 441.922C182.693 441.354 182.649 440.707 182.292 440.184C179.082 435.569 172.472 430.219 159.053 430.565V442.859ZM180.854 445.21H157.871C157.225 445.21 156.69 444.686 156.69 444.029V429.428C156.69 428.804 157.18 428.28 157.816 428.258C173.866 427.477 181.255 434.566 184.231 438.846C185.089 440.072 185.179 441.677 184.488 443.015C183.774 444.363 182.381 445.21 180.854 445.21Z" fill="#2B2A2A"/>
<path d="M204.349 340.239C204.349 340.239 210.491 335.379 209.41 328.736C208.329 322.082 209.254 314.503 202.6 311.416C195.946 308.317 182.883 308.317 179.483 310.179C176.073 312.029 176.641 317.033 171.848 318.583C167.044 320.132 160.858 322.907 159.766 328.48C158.685 334.042 156.523 351.987 166.275 356.634C176.028 361.271 204.349 340.239 204.349 340.239Z" fill="#2B2A2A"/>
<path d="M170.188 353.48V378.48C170.188 382.214 173.219 385.246 176.953 385.246H184.889C188.623 385.246 191.654 382.214 191.654 378.48V366.889L170.188 353.48Z" fill="white"/>
<path d="M171.369 355.609V378.48C171.369 381.568 173.877 384.064 176.953 384.064H184.889C187.976 384.064 190.484 381.568 190.484 378.48V367.535L171.369 355.609ZM184.889 386.416H176.953C172.573 386.416 169.017 382.861 169.017 378.48V353.48C169.017 353.057 169.251 352.655 169.619 352.455C169.998 352.243 170.455 352.254 170.812 352.488L192.279 365.885C192.624 366.108 192.836 366.487 192.836 366.889V378.48C192.836 382.861 189.269 386.416 184.889 386.416Z" fill="#2B2A2A"/>
<path d="M195.489 329.539C200.983 331.099 204.818 336.059 205.085 341.766C205.553 351.507 204.951 366.978 196.202 370.188C183.819 374.724 174.523 363.177 172.673 360.903C170.812 358.641 168.95 351.418 168.95 351.418C168.95 351.418 165.027 351.218 164.202 347.918C163.377 344.619 162.14 338.835 169.987 339.046C169.987 339.046 171.224 328.112 184.644 328.112C188.979 328.112 192.591 328.725 195.489 329.539Z" fill="white"/>
<path d="M169.586 340.217C167.568 340.217 166.186 340.674 165.462 341.565C164.225 343.114 164.949 346.046 165.35 347.629C165.963 350.058 168.984 350.248 169.017 350.248C169.53 350.27 169.965 350.627 170.098 351.128C170.6 353.068 172.194 358.473 173.576 360.168L173.643 360.235C178.513 366.186 186.316 372.562 195.79 369.084C203.859 366.131 204.338 350.727 203.915 341.822C203.658 336.561 200.148 332.08 195.165 330.676C191.933 329.762 188.389 329.294 184.644 329.294C172.484 329.294 171.202 338.779 171.157 339.18C171.079 339.782 170.555 340.272 169.953 340.228C169.831 340.217 169.697 340.217 169.586 340.217ZM190.484 372.406C184.02 372.406 177.566 368.75 171.815 361.728L171.759 361.65C170.098 359.633 168.571 354.494 168.014 352.477C166.587 352.187 163.823 351.251 163.065 348.197C162.575 346.224 161.65 342.546 163.623 340.083C164.726 338.712 166.543 337.976 169.028 337.876C169.764 334.967 172.874 326.942 184.644 326.942C188.6 326.942 192.357 327.432 195.801 328.413C201.764 330.096 205.966 335.435 206.267 341.699C206.824 353.38 205.609 367.992 196.603 371.291C194.575 372.038 192.535 372.406 190.484 372.406Z" fill="#2B2A2A"/>
<path d="M80.3967 455.676L44.195 650.216H32.1798L68.8942 454.996L80.3967 455.676Z" fill="#008037"/>
<path d="M549.135 455.665L585.325 650.216H597.34L560.626 454.996L549.135 455.665Z" fill="#008037"/>
<path d="M585.247 442.903H48.8094C44.9195 442.903 41.7652 446.057 41.7652 449.936C41.7652 453.826 44.9195 456.98 48.8094 456.98H585.247C589.137 456.98 592.291 453.826 592.291 449.936C592.291 446.057 589.137 442.903 585.247 442.903Z" fill="#008037"/>
<path d="M316.934 445.255H70.5326C69.8862 445.255 69.3623 444.731 69.3623 444.085C69.3623 443.438 69.8862 442.903 70.5326 442.903H316.934C317.58 442.903 318.104 443.438 318.104 444.085C318.104 444.731 317.58 445.255 316.934 445.255Z" fill="#2B2A2A"/>
<path d="M294.408 456.98H249.379C248.732 456.98 248.208 456.456 248.208 455.799C248.208 455.152 248.732 454.629 249.379 454.629H294.408C295.065 454.629 295.589 455.152 295.589 455.799C295.589 456.456 295.065 456.98 294.408 456.98Z" fill="#2B2A2A"/>
<path d="M467.369 547.139L484.478 649.714H493.862L476.096 546.782L467.369 547.139Z" fill="#048B3E"/>
<path d="M485.481 648.533H492.469L475.104 547.997L468.751 548.254L485.481 648.533ZM493.863 650.884H484.478C483.898 650.884 483.408 650.472 483.319 649.904L466.21 547.328C466.154 546.994 466.254 546.649 466.455 546.392C466.678 546.136 466.99 545.969 467.324 545.958L476.051 545.601C476.631 545.579 477.155 546.002 477.255 546.582L495.022 649.502C495.089 649.848 494.988 650.204 494.765 650.461C494.542 650.728 494.208 650.884 493.863 650.884Z" fill="#2B2A2A"/>
<path d="M401.653 547.139L384.555 649.714H375.159L392.937 546.782L401.653 547.139Z" fill="#048B3E"/>
<path d="M376.564 648.533H383.552L400.271 548.254L393.918 547.997L376.564 648.533ZM384.555 650.884H375.159C374.814 650.884 374.479 650.728 374.257 650.461C374.034 650.205 373.944 649.848 374 649.502L391.767 546.582C391.878 545.991 392.402 545.579 392.982 545.601L401.698 545.958C402.032 545.969 402.355 546.136 402.567 546.392C402.779 546.649 402.868 546.994 402.812 547.328L385.714 649.904C385.614 650.472 385.124 650.884 384.555 650.884Z" fill="#2B2A2A"/>
<path d="M488.657 547.785H380.364C379.161 547.785 378.18 546.805 378.18 545.59V535.904C378.18 534.689 379.161 533.708 380.364 533.708H488.657C489.872 533.708 490.853 534.689 490.853 535.904V545.59C490.853 546.805 489.872 547.785 488.657 547.785Z" fill="#048B3E"/>
<path d="M385.224 534.89C381.981 534.89 379.361 537.52 379.361 540.741C379.361 543.974 381.981 546.604 385.224 546.604H483.809C487.041 546.604 489.672 543.974 489.672 540.741C489.672 537.52 487.041 534.89 483.809 534.89H385.224ZM483.809 548.956H385.224C380.688 548.956 376.998 545.278 376.998 540.741C376.998 536.216 380.688 532.538 385.224 532.538H483.809C488.345 532.538 492.023 536.216 492.023 540.741C492.023 545.278 488.345 548.956 483.809 548.956Z" fill="#2B2A2A"/>
<path d="M472.24 490.15C472.24 490.15 487.22 521.314 472.463 533.82C457.705 546.325 405.844 542.313 399.134 534.266C394.609 528.838 389.972 503.882 402.823 488.478C402.823 488.478 470.222 479.094 472.24 490.15Z" fill="#2B2A2A"/>
<path d="M420.155 617.815C418.361 613.903 405.287 616.02 405.287 616.02C405.175 619.932 397.797 634.01 397.797 634.01H397.819C397.585 634.266 397.351 634.511 397.128 634.734C393.94 637.911 385.726 648.131 404.005 648.811C420.311 649.402 421.125 640.006 420.991 634.4C421.37 629.73 420.155 617.815 420.155 617.815Z" fill="#048B3E"/>
<path d="M407.56 627.445C407.092 627.445 406.658 627.166 406.468 626.698C406.234 626.096 406.524 625.416 407.126 625.171C408.708 624.547 410.38 624.157 412.119 624.012C413.813 623.867 415.63 624.257 417.257 625.093C417.837 625.394 418.06 626.107 417.77 626.687C417.469 627.266 416.756 627.489 416.176 627.188C414.95 626.553 413.546 626.252 412.32 626.352C410.815 626.486 409.355 626.821 407.995 627.356C407.85 627.411 407.705 627.445 407.56 627.445Z" fill="#2B2A2A"/>
<path d="M401.82 548.454L399.134 619.821C399.134 619.821 413.557 615.797 423.621 619.821L428.648 547.451L401.82 548.454Z" fill="#2B2A2A"/>
<path d="M458.709 617.815C456.925 613.903 443.851 616.02 443.851 616.02C443.74 619.932 436.361 634.01 436.361 634.01H436.383C436.149 634.266 435.915 634.511 435.681 634.734C432.505 637.911 424.29 648.131 442.558 648.811C458.865 649.402 459.689 640.006 459.556 634.4C459.935 629.73 458.709 617.815 458.709 617.815Z" fill="#048B3E"/>
<path d="M455.03 627.188C454.863 627.188 454.685 627.155 454.518 627.077C453.336 626.508 452.043 626.252 450.884 626.352C449.68 626.453 448.521 626.687 447.429 627.043C446.816 627.255 446.147 626.91 445.947 626.297C445.746 625.673 446.08 625.015 446.693 624.814C447.964 624.391 449.301 624.134 450.672 624.012C452.255 623.867 453.983 624.212 455.532 624.948C456.123 625.238 456.368 625.94 456.089 626.52C455.889 626.943 455.465 627.188 455.03 627.188Z" fill="#2B2A2A"/>
<path d="M439.036 548.454L436.361 619.821C436.361 619.821 450.784 615.797 460.837 619.821L465.864 547.451L439.036 548.454Z" fill="#2B2A2A"/>
<path d="M399.48 397.673L364.248 414.793C363.144 415.328 361.818 414.871 361.272 413.768L342.614 375.627C340.618 371.559 336.996 368.516 332.627 367.29C327.845 365.963 321.659 365.016 317.312 367.178C309.265 371.202 328.38 377.901 331.066 381.59C333.753 385.268 336.428 424.145 348.51 432.181C360.569 440.228 400.148 430.175 400.148 430.175L399.48 397.673Z" fill="white"/>
<path d="M323.643 367.067C321.548 367.067 319.53 367.39 317.847 368.237C317.023 368.65 316.543 369.084 316.532 369.441C316.477 371.113 321.905 374.234 325.137 376.106C328.269 377.912 330.977 379.472 332.014 380.899C332.95 382.17 333.619 385.58 334.923 392.557C337.252 405.018 341.153 425.872 349.156 431.2C359.667 438.211 393.004 430.676 398.945 429.25L398.332 399.535L364.771 415.852C363.077 416.666 361.038 415.964 360.213 414.281L341.555 376.151C339.693 372.361 336.327 369.552 332.315 368.427C329.762 367.713 326.619 367.067 323.643 367.067ZM364.136 436.472C357.493 436.472 351.519 435.603 347.852 433.162C339.013 427.277 335.157 406.646 332.605 392.992C331.702 388.166 330.765 383.173 330.108 382.281C329.372 381.256 326.619 379.673 323.967 378.146C318.884 375.215 314.091 372.461 314.169 369.374C314.214 368.059 315.094 366.967 316.789 366.131C321.537 363.757 328.202 364.838 332.95 366.164C337.609 367.468 341.521 370.723 343.672 375.114L362.33 413.255C362.587 413.768 363.211 413.98 363.735 413.735L398.956 396.615C399.324 396.436 399.747 396.458 400.081 396.67C400.427 396.871 400.639 397.25 400.65 397.64L401.319 430.152C401.33 430.698 400.962 431.178 400.438 431.311C399.279 431.601 379.863 436.472 364.136 436.472Z" fill="#2B2A2A"/>
<path d="M507.929 334.209H493.093C492.313 334.209 491.678 334.833 491.678 335.613V339.882C491.678 340.662 492.313 341.287 493.093 341.287C493.862 341.287 494.498 341.922 494.498 342.691V388.289C494.498 389.069 495.122 389.704 495.902 389.704H505.109C505.889 389.704 506.513 389.069 506.513 388.289V342.691C506.513 341.922 507.148 341.287 507.929 341.287C508.698 341.287 509.333 340.662 509.333 339.882V335.613C509.333 334.833 508.698 334.209 507.929 334.209Z" fill="#008037"/>
<path d="M471.905 398.676L498.399 417.435C498.399 417.435 490.352 386.605 490.352 379.238C490.352 371.871 497.83 357.481 503.582 358.763C512.197 360.669 504.607 369.753 503.972 378.447C503.66 382.671 529.25 430.509 511.138 445.244C493.027 459.99 463.523 416.097 463.523 416.097L471.905 398.676Z" fill="white"/>
<path d="M464.872 415.997C467.692 420.021 485.481 444.686 500.617 446.938C504.362 447.495 507.561 446.648 510.392 444.341C523.789 433.429 511.607 402.31 505.755 387.363C503.626 381.958 502.701 379.528 502.79 378.358C503.013 375.348 504.016 372.294 504.919 369.597C506.011 366.309 507.048 363.188 506.112 361.539C505.677 360.758 504.763 360.234 503.325 359.911C502.166 359.655 500.918 360.413 500.071 361.104C495.913 364.425 491.522 373.754 491.522 379.238C491.522 386.383 499.447 416.833 499.536 417.145C499.658 417.624 499.469 418.126 499.056 418.405C498.655 418.683 498.12 418.683 497.708 418.405L472.362 400.449L464.872 415.997ZM502.735 449.457C501.932 449.457 501.107 449.39 500.26 449.267C482.828 446.67 463.368 417.981 462.543 416.755C462.309 416.409 462.275 415.964 462.454 415.585L470.835 398.164C470.991 397.852 471.27 397.629 471.604 397.54C471.939 397.45 472.295 397.517 472.574 397.718L496.448 414.626C494.398 406.557 489.17 385.357 489.17 379.238C489.17 372.974 493.84 363.077 498.6 359.265C500.416 357.805 502.177 357.247 503.838 357.615C505.967 358.083 507.371 358.997 508.163 360.379C509.612 362.943 508.475 366.376 507.16 370.344C506.257 373.03 505.332 375.805 505.142 378.536C505.12 379.294 506.558 382.961 507.94 386.505C514.003 401.976 526.62 434.165 511.874 446.169C509.188 448.353 506.123 449.457 502.735 449.457Z" fill="#2B2A2A"/>
<path d="M418.929 391.632C418.929 391.632 401.152 391.298 387.409 400.683L394.453 422.517C396.682 429.383 398.131 436.483 398.777 443.672L402.823 488.478C402.823 488.478 426.976 504.228 472.24 490.15L474.034 447.562C474.402 438.69 475.985 429.907 478.738 421.47L484.311 404.372C484.311 404.372 472.908 393.984 460.503 392.981C448.098 391.978 418.929 391.632 418.929 391.632Z" fill="#048B3E"/>
<path d="M403.938 487.765C407.493 489.783 430.844 501.541 471.092 489.27L472.841 447.518C473.22 438.534 474.825 429.651 477.612 421.113L482.951 404.751C480.521 402.711 470.735 394.987 460.403 394.151C448.176 393.159 419.197 392.825 418.907 392.814C418.896 392.814 418.862 392.814 418.751 392.814C417.045 392.814 401.285 393.048 388.791 401.173L395.579 422.15C397.819 429.093 399.29 436.305 399.948 443.572L403.938 487.765ZM436.261 497.228C414.437 497.228 402.868 489.905 402.177 489.459C401.876 489.259 401.686 488.935 401.653 488.579L397.596 443.784C396.961 436.684 395.523 429.651 393.338 422.874L386.283 401.051C386.116 400.549 386.305 400.014 386.74 399.713C400.605 390.25 418.127 390.451 418.94 390.462C419.397 390.473 448.332 390.808 460.592 391.811C473.254 392.836 484.623 403.068 485.102 403.503C485.447 403.815 485.57 404.294 485.436 404.74L479.852 421.838C477.133 430.175 475.572 438.846 475.204 447.607L473.41 490.206C473.388 490.696 473.064 491.131 472.585 491.276C458.374 495.69 446.248 497.228 436.261 497.228Z" fill="#2B2A2A"/>
<path d="M500.639 319.028C499.58 317.189 500.205 314.826 502.055 313.768C503.894 312.709 506.246 313.333 507.304 315.172C508.374 317.011 507.739 319.374 505.9 320.433C504.061 321.503 501.709 320.867 500.639 319.028Z" fill="#008037"/>
<path d="M491.823 296.213C491.823 293.627 493.918 291.532 496.504 291.532C499.09 291.532 501.174 293.627 501.174 296.213C501.174 298.799 499.09 300.894 496.504 300.894C493.918 300.894 491.823 298.799 491.823 296.213Z" fill="white"/>
<path d="M496.504 292.713C494.565 292.713 492.993 294.285 492.993 296.213C492.993 298.141 494.565 299.713 496.504 299.713C498.432 299.713 500.004 298.141 500.004 296.213C500.004 294.285 498.432 292.713 496.504 292.713ZM496.504 302.064C493.272 302.064 490.641 299.434 490.641 296.213C490.641 292.981 493.272 290.35 496.504 290.35C499.736 290.35 502.356 292.981 502.356 296.213C502.356 299.434 499.736 302.064 496.504 302.064Z" fill="#2B2A2A"/>
<path d="M500.996 272.093C500.996 268.337 504.039 265.294 507.806 265.294C511.562 265.294 514.605 268.337 514.605 272.093C514.605 275.849 511.562 278.892 507.806 278.892C504.039 278.892 500.996 275.849 500.996 272.093Z" fill="white"/>
<path d="M507.806 266.465C504.696 266.465 502.166 268.995 502.166 272.093C502.166 275.192 504.696 277.711 507.806 277.711C510.904 277.711 513.435 275.192 513.435 272.093C513.435 268.995 510.904 266.465 507.806 266.465ZM507.806 280.063C503.403 280.063 499.814 276.485 499.814 272.093C499.814 267.691 503.403 264.113 507.806 264.113C512.208 264.113 515.786 267.691 515.786 272.093C515.786 276.485 512.208 280.063 507.806 280.063Z" fill="#2B2A2A"/>
<path d="M412.386 346.904C412.386 346.904 407.014 369.352 410.536 374.713C414.058 380.074 422.774 378.904 422.774 378.904H437.197V347.238L412.386 346.904Z" fill="white"/>
<path d="M413.311 348.097C411.784 354.806 408.987 370.21 411.517 374.066C414.593 378.737 422.54 377.745 422.618 377.733C422.674 377.733 422.73 377.733 422.774 377.733H436.016V348.409L413.311 348.097ZM420.723 380.197C417.681 380.197 412.308 379.55 409.555 375.359C405.855 369.742 410.681 348.977 411.238 346.637C411.372 346.09 411.851 345.689 412.398 345.734L437.219 346.068C437.855 346.079 438.378 346.603 438.378 347.238V378.904C438.378 379.561 437.843 380.085 437.197 380.085H422.852C422.585 380.119 421.805 380.197 420.723 380.197Z" fill="#2B2A2A"/>
<path d="M410.759 343.728C412.554 339.481 415.674 324.969 435.581 324.512C455.476 324.066 463.746 338.589 463.746 346.848C463.746 355.119 463.746 419.898 463.746 419.898C463.746 419.898 462.632 442.234 440.719 442.234C418.806 442.234 417.246 422.35 417.246 422.35V383.641C417.246 370.801 415.284 358.05 411.417 345.812L410.759 343.728Z" fill="#2B2A2A"/>
</g>
</svg>
